<?xml version="1.0" standalone="no"?>
<!DOCTYPE svg PUBLIC "-//W3C//DTD SVG 20010904//EN"
 "http://www.w3.org/TR/2001/REC-SVG-20010904/DTD/svg10.dtd">
<svg version="1.0" xmlns="http://www.w3.org/2000/svg"
 width="867.000000pt" height="867.000000pt" viewBox="0 0 867.000000 867.000000"
 preserveAspectRatio="xMidYMid meet">
<metadata>
Created by potrace 1.11, written by Peter Selinger 2001-2013
</metadata>
<g transform="translate(0.000000,867.000000) scale(0.100000,-0.100000)"
fill="#000000" stroke="none">
<path d="M3585 7522 c-342 -210 -366 -230 -560 -451 -16 -18 -56 -61 -87 -95
-54 -58 -60 -71 -122 -241 -69 -188 -76 -218 -125 -480 -32 -172 -37 -207 -47
-360 -3 -55 -8 -116 -10 -135 -2 -19 -7 -136 -10 -260 -5 -208 -4 -232 16
-320 12 -52 23 -104 26 -115 38 -197 56 -251 154 -449 55 -110 110 -219 123
-241 12 -22 49 -87 81 -145 32 -58 67 -119 78 -137 l19 -32 -134 -100 c-148
-109 -126 -101 -317 -116 -36 -3 -92 -8 -124 -11 -33 -3 -128 -26 -210 -51
-83 -25 -167 -49 -186 -55 -19 -5 -78 -22 -130 -38 -52 -16 -106 -31 -120 -34
-14 -2 -108 -20 -210 -40 -102 -19 -196 -37 -210 -40 -78 -15 -204 -39 -265
-51 -38 -8 -86 -17 -105 -20 -19 -3 -73 -15 -120 -26 -47 -11 -92 -22 -100
-24 -8 -2 -91 -22 -185 -45 -93 -23 -178 -43 -188 -45 -47 -10 -62 -24 -146
-135 l-90 -118 29 -182 29 -182 -24 -22 c-23 -21 -49 -106 -70 -227 -3 -18 -7
-35 -9 -38 -5 -7 -13 -70 -21 -166 -4 -38 -9 -82 -11 -96 -6 -40 -12 -96 -19
-169 -3 -36 -8 -76 -10 -90 -4 -24 -8 -50 -20 -145 -11 -81 -15 -111 -19 -145
-3 -19 -8 -55 -11 -80 -7 -52 -12 -83 -25 -160 -5 -30 -12 -71 -15 -90 -3 -19
-7 -46 -10 -60 -3 -14 -7 -40 -10 -57 -3 -18 -7 -47 -10 -63 l-5 -30 4275 0
4274 0 -4 58 c-21 237 -49 349 -141 552 l-39 85 0 240 c-1 251 -4 273 -54 386
-27 59 -104 137 -153 154 -23 8 -52 19 -63 24 -11 5 -33 14 -50 20 -16 5 -95
35 -175 65 l-145 55 3 31 c2 18 35 126 73 242 l69 211 7 156 c9 221 9 350 1
396 -4 22 -12 65 -18 95 -6 30 -13 73 -15 95 -16 126 -45 218 -142 459 -94
232 -125 295 -180 354 -7 7 -34 41 -60 75 -26 34 -50 64 -53 67 -3 3 -19 23
-36 45 -16 22 -33 45 -39 51 -5 6 -26 31 -45 57 -19 25 -40 48 -45 50 -6 3
-87 58 -180 124 -216 152 -409 254 -675 354 l-205 77 -3 103 c-2 65 3 130 13
181 9 43 18 91 21 106 3 15 7 35 10 44 3 10 -13 75 -35 145 -60 192 -113 376
-170 593 -29 107 -61 207 -72 222 -11 15 -24 38 -29 50 -6 13 -48 84 -93 158
-83 134 -85 136 -193 217 l-109 82 -940 1 -940 0 -110 -68z"/>
</g>
</svg>
